<svg width="36" height="31" viewBox="0 0 36 31" fill="none" xmlns="http://www.w3.org/2000/svg">
<g id="clarity:eye-line" clip-path="url(#clip0_9_403)">
<path id="Vector" d="M33.62 15.0952C30.25 9.73052 24.34 6.48413 17.8 6.48413C11.26 6.48413 5.33997 9.73052 1.99997 15.0952L1.71997 15.5L1.97997 15.9133C5.34997 21.278 11.26 24.5244 17.8 24.5244C24.34 24.5244 30.26 21.3211 33.62 15.9133L33.88 15.5L33.62 15.0952ZM17.8 22.7591C12.17 22.7591 6.99997 20.0552 3.99997 15.5C6.99997 10.9447 12.17 8.2408 17.8 8.2408C23.43 8.2408 28.54 10.9533 31.59 15.5C28.54 20.0552 23.42 22.7591 17.8 22.7591Z" fill="#6B6B6B"/>
<path id="Vector_2" d="M18.09 9.61857C16.7341 9.62709 15.4115 9.98142 14.2894 10.6368C13.1672 11.2922 12.2958 12.2193 11.7851 13.3009C11.2745 14.3825 11.1475 15.5702 11.4203 16.7139C11.693 17.8576 12.3533 18.9061 13.3176 19.7269C14.2819 20.5477 15.5071 21.104 16.8384 21.3255C18.1697 21.5471 19.5474 21.4239 20.7974 20.9716C22.0475 20.5193 23.1138 19.7582 23.8618 18.7843C24.6098 17.8104 25.0059 16.6675 25 15.5C24.996 14.7227 24.8141 13.9538 24.4644 13.2373C24.1148 12.5208 23.6044 11.8707 22.9625 11.3243C22.3205 10.778 21.5597 10.3461 20.7236 10.0534C19.8875 9.76065 18.9925 9.61289 18.09 9.61857ZM18.09 19.7108C17.1322 19.7023 16.1987 19.4503 15.4068 18.9864C14.6148 18.5226 13.9997 17.8676 13.6386 17.1036C13.2775 16.3397 13.1867 15.501 13.3774 14.6927C13.5681 13.8844 14.0319 13.1427 14.7105 12.5607C15.3892 11.9787 16.2524 11.5824 17.1918 11.4214C18.1312 11.2605 19.1049 11.3422 19.9905 11.6562C20.8762 11.9703 21.6343 12.5026 22.1697 13.1865C22.7052 13.8704 22.994 14.6752 23 15.5C23.0026 16.055 22.8773 16.605 22.6313 17.1181C22.3852 17.6311 22.0233 18.097 21.5666 18.4887C21.1099 18.8804 20.5674 19.1901 19.9706 19.3999C19.3738 19.6097 18.7345 19.7154 18.09 19.7108Z" fill="#6B6B6B"/>
</g>
<defs>
<clipPath id="clip0_9_403">
<rect width="36" height="31" fill="white"/>
</clipPath>
</defs>
</svg>
